<svg width="87" height="77" viewBox="0 0 87 77" fill="none" xmlns="http://www.w3.org/2000/svg">
<path d="M34.8846 59.3575L15.9527 61.4491C16.9329 63.2018 17.8788 65.5523 18.2394 68.4565C18.6002 71.3612 18.2558 73.8546 17.7316 75.7737L36.6637 73.6821C38.1412 73.5188 38.8799 73.4372 39.5935 73.2671C40.4355 73.0662 41.2517 72.7735 42.0278 72.3941C42.6858 72.0725 43.3052 71.667 44.544 70.8562L51.077 66.5804C51.6866 66.1814 52.0143 65.4673 51.9235 64.7356C51.8326 64.004 51.3388 63.3806 50.6479 63.1252L43.244 60.3893C41.84 59.8704 41.1381 59.6109 40.4191 59.4414C39.5711 59.2414 38.7052 59.1346 37.8368 59.1227C37.1008 59.1128 36.3619 59.1943 34.8846 59.3575Z M10.6994 62.0295C6.76837 62.4638 3.97987 66.0225 4.47116 69.9782C4.96244 73.9338 8.54752 76.7884 12.4786 76.3541L14.7492 76.1032C14.7727 76.0368 14.7963 75.9693 14.8197 75.9005C15.4011 74.1883 15.8936 71.729 15.5245 68.7566C15.1553 65.7841 14.0735 63.4988 13.0882 61.9596C13.0487 61.898 13.0095 61.8377 12.9705 61.7786L10.6994 62.0295Z M12.1687 53.7102H24.1276L45.5802 0H35.9816L19.5681 42.8684L18.0433 27.3796H1.78335L0 38.2895H9.40405L12.1687 53.7102Z M86.9119 37.8349H72.3304C72.4353 36.5936 72.3654 35.4746 72.1206 34.478C71.8759 33.4815 71.4563 32.6248 70.8618 31.9079C70.2674 31.1736 69.4893 30.6141 68.5277 30.2295C67.5661 29.8448 66.4209 29.6525 65.0922 29.6525C62.5395 29.6525 60.2579 30.2907 58.2473 31.567C56.2366 32.8258 54.5669 34.6354 53.2381 36.9957C51.9094 39.3385 50.9653 42.1359 50.4058 45.3879C49.9162 48.535 49.8987 51.1488 50.3533 53.2294C50.8254 55.31 51.7433 56.866 53.107 57.8976C54.4882 58.9291 56.2803 59.4449 58.4833 59.4449C59.9519 59.4449 61.2982 59.2701 62.522 58.9204C63.7634 58.5707 64.8649 58.0724 65.8265 57.4255C66.8056 56.7611 67.636 55.9744 68.3179 55.0652C69.0173 54.1386 69.5505 53.1158 69.9177 51.9968H84.6041C84.0446 54.2697 83.048 56.595 81.6143 58.9728C80.1807 61.3331 78.3274 63.5099 76.0545 65.503C73.7816 67.4787 71.1066 69.0785 68.0294 70.3023C64.9523 71.5262 61.4905 72.1381 57.6441 72.1381C54.2838 72.1381 51.2311 71.6476 48.486 70.6666L52.1724 68.2538C53.4301 67.4306 54.0916 65.9662 53.9083 64.489C53.7254 63.0165 52.7341 61.764 51.3412 61.2492L43.8127 58.4672C42.5262 57.9916 41.717 57.6925 40.8782 57.4947C39.8891 57.2616 38.8782 57.1367 37.8639 57.1229C37.3024 57.1153 36.7439 57.1527 36.0474 57.2213C34.9961 53.3875 34.8868 48.8835 35.7194 43.7095C36.6985 37.8349 38.6304 32.9132 41.5153 28.9444C44.4001 24.9756 47.9056 21.9859 52.0318 19.9752C56.1579 17.9646 60.5464 16.9593 65.1971 16.9593C68.7113 16.9593 71.8584 17.4226 74.6383 18.3492C77.4357 19.2759 79.7873 20.6309 81.693 22.4142C83.6162 24.1801 85.0324 26.3568 85.9416 28.9444C86.8507 31.532 87.1742 34.4955 86.9119 37.8349Z" fill="white"/>
</svg>
