<svg width="55" height="25" viewBox="0 0 55 25" fill="none" xmlns="http://www.w3.org/2000/svg">
<g filter="url(#filter0_d_133_18)">
<path d="M34.3461 1.0467L15.4141 3.13829C16.3943 4.89107 17.3402 7.24155 17.7009 10.1458C18.0616 13.0505 17.7173 15.5439 17.193 17.463L36.1252 15.3713C37.6026 15.208 38.3414 15.1264 39.0549 14.9563C39.8969 14.7554 40.7131 14.4627 41.4892 14.0834C42.1472 13.7617 42.7666 13.3562 44.0055 12.5455L50.5384 8.26961C51.148 7.87067 51.4757 7.15653 51.3849 6.42483C51.294 5.69328 50.8002 5.06983 50.1093 4.81447L42.7054 2.07853C41.3015 1.55967 40.5995 1.30014 39.8806 1.13062C39.0325 0.930683 38.1666 0.823812 37.2982 0.81194C36.5622 0.801993 35.8233 0.883497 34.3461 1.0467Z" fill="white"/>
<path d="M10.1609 3.71872C6.22979 4.15303 3.44129 7.71178 3.93258 11.6674C4.42386 15.623 8.00895 18.4777 11.94 18.0434L14.2106 17.7924C14.2341 17.726 14.2578 17.6586 14.2811 17.5897C14.8625 15.8775 15.355 13.4183 14.9859 10.4458C14.6167 7.47333 13.5349 5.18806 12.5496 3.64887C12.5102 3.58728 12.4709 3.52694 12.4319 3.46781L10.1609 3.71872Z" fill="white"/>
</g>
<defs>
<filter id="filter0_d_133_18" x="0.876465" y="0.811127" width="53.5234" height="23.2759" filterUnits="userSpaceOnUse" color-interpolation-filters="sRGB">
<feFlood flood-opacity="0" result="BackgroundImageFix"/>
<feColorMatrix in="SourceAlpha" type="matrix" values="0 0 0 0 0 0 0 0 0 0 0 0 0 0 0 0 0 0 127 0" result="hardAlpha"/>
<feOffset dy="3"/>
<feGaussianBlur stdDeviation="1.5"/>
<feComposite in2="hardAlpha" operator="out"/>
<feColorMatrix type="matrix" values="0 0 0 0 0 0 0 0 0 0 0 0 0 0 0 0 0 0 0.4 0"/>
<feBlend mode="normal" in2="BackgroundImageFix" result="effect1_dropShadow_133_18"/>
<feBlend mode="normal" in="SourceGraphic" in2="effect1_dropShadow_133_18" result="shape"/>
</filter>
</defs>
</svg>
