<svg width="355" height="114" viewBox="0 0 355 114" fill="none" xmlns="http://www.w3.org/2000/svg">
<path d="M231.97 0.89011L90.6983 5.73001C96.7776 19.1522 102.206 36.9464 102.944 58.4834C103.682 80.0241 99.4829 98.151 94.3357 111.959L235.609 107.118C246.634 106.74 252.147 106.551 257.532 105.698C263.887 104.69 270.112 102.994 276.098 100.638C281.173 98.6412 286.019 96.0068 295.71 90.7391L346.818 62.9579C351.587 60.366 354.483 55.3016 354.297 49.8755C354.111 44.4505 350.876 39.5956 345.941 37.3354L293.051 13.1186C283.022 8.52601 278.007 6.22901 272.808 4.58388C266.674 2.64344 260.347 1.37686 253.939 0.806791C248.507 0.324492 242.994 0.512454 231.97 0.89011Z" fill="white"/>
<path d="M51.498 7.07336C22.164 8.07843 -0.801327 32.6731 0.203639 62.0071C1.20851 91.3412 25.8035 114.307 55.1376 113.302L72.0808 112.721C72.2987 112.246 72.5181 111.763 72.7362 111.27C78.1687 99.0149 83.4397 81.2212 82.6846 59.1781C81.9295 37.135 75.4528 19.7442 69.1941 7.88839C68.9436 7.41399 68.6938 6.94886 68.4448 6.49278L51.498 7.07336Z" fill="white"/>
</svg>
