<svg width="117" height="117" viewBox="0 0 117 117" fill="none" xmlns="http://www.w3.org/2000/svg">
<path d="M99.45 0H17.55C7.8574 0 0 7.8574 0 17.55V99.45C0 109.143 7.8574 117 17.55 117H99.45C109.143 117 117 109.143 117 99.45V17.55C117 7.8574 109.143 0 99.45 0Z" fill="url(#paint0_linear_60_38)"/>
<g filter="url(#filter0_d_60_38)">
<path d="M33.1482 66.7777L50.9816 20.2009H60.5802L39.1276 73.9111H30.5256L33.1482 66.7777ZM33.0433 47.5805L35.0364 67.8267L34.5119 73.9111H27.1687L22.4481 47.5805H33.0433ZM15 58.4904L16.7833 47.5805H32.0991L30.3158 58.4904H15Z" fill="url(#paint1_linear_60_38)"/>
<path d="M101.912 58.0358H87.3304C87.4353 56.7944 87.3654 55.6755 87.1206 54.6789C86.8759 53.6823 86.4563 52.8256 85.8618 52.1088C85.2674 51.3745 84.4893 50.815 83.5277 50.4303C82.5661 50.0457 81.4209 49.8534 80.0922 49.8534C77.5395 49.8534 75.2579 50.4915 73.2473 51.7679C71.2366 53.0267 69.5669 54.8363 68.2381 57.1966C66.9094 59.5394 65.9653 62.3368 65.4058 65.5888C64.9162 68.7359 64.8987 71.3497 65.3533 73.4303C65.8254 75.5108 66.7433 77.0669 68.107 78.0984C69.4882 79.13 71.2803 79.6458 73.4833 79.6458C74.9519 79.6458 76.2982 79.4709 77.522 79.1212C78.7634 78.7716 79.8649 78.2733 80.8265 77.6264C81.8056 76.962 82.636 76.1752 83.3179 75.2661C84.0173 74.3394 84.5505 73.3166 84.9177 72.1977H99.6041C99.0446 74.4706 98.048 76.7959 96.6143 79.1737C95.1807 81.534 93.3274 83.7107 91.0545 85.7039C88.7816 87.6796 86.1066 89.2793 83.0294 90.5032C79.9523 91.7271 76.4905 92.339 72.6441 92.339C67.6087 92.339 63.264 91.2375 59.6099 89.0346C55.9733 86.8316 53.3332 83.6146 51.6897 79.3835C50.0637 75.1524 49.7403 69.9947 50.7194 63.9103C51.6985 58.0358 53.6304 53.1141 56.5153 49.1453C59.4001 45.1765 62.9056 42.1867 67.0318 40.1761C71.1579 38.1655 75.5464 37.1601 80.1971 37.1601C83.7113 37.1601 86.8584 37.6235 89.6383 38.5501C92.4357 39.4767 94.7873 40.8317 96.693 42.6151C98.6162 44.381 100.032 46.5577 100.942 49.1453C101.851 51.7329 102.174 54.6964 101.912 58.0358Z" fill="url(#paint2_linear_60_38)"/>
</g>
<g filter="url(#filter1_d_60_38)">
<path d="M49.8844 79.5583L30.9524 81.6499C31.9327 83.4027 32.8785 85.7531 33.2392 88.6574C33.6 91.5621 33.2556 94.0555 32.7313 95.9746L51.6635 93.8829C53.1409 93.7196 53.8797 93.638 54.5933 93.4679C55.4352 93.267 56.2514 92.9743 57.0276 92.595C57.6855 92.2733 58.305 91.8678 59.5438 91.0571L66.0767 86.7812C66.6863 86.3823 67.014 85.6681 66.9232 84.9364C66.8323 84.2049 66.3385 83.5814 65.6476 83.3261L58.2438 80.5901C56.8398 80.0713 56.1378 79.8117 55.4189 79.6422C54.5708 79.4423 53.7049 79.3354 52.8365 79.3235C52.1006 79.3136 51.3617 79.3951 49.8844 79.5583Z" fill="url(#paint3_linear_60_38)"/>
<path d="M25.6992 82.2303C21.7681 82.6646 18.9796 86.2234 19.4709 90.179C19.9622 94.1346 23.5473 96.9893 27.4784 96.5549L29.7489 96.304C29.7724 96.2376 29.7961 96.1702 29.8194 96.1013C30.4009 94.3891 30.8934 91.9299 30.5242 88.9574C30.155 85.9849 29.0732 83.6997 28.0879 82.1605C28.0485 82.0989 28.0093 82.0385 27.9702 81.9794L25.6992 82.2303Z" fill="url(#paint4_linear_60_38)"/>
</g>
<defs>
<filter id="filter0_d_60_38" x="6.1" y="15.3009" width="104.8" height="89.9381" filterUnits="userSpaceOnUse" color-interpolation-filters="sRGB">
<feFlood flood-opacity="0" result="BackgroundImageFix"/>
<feColorMatrix in="SourceAlpha" type="matrix" values="0 0 0 0 0 0 0 0 0 0 0 0 0 0 0 0 0 0 127 0" result="hardAlpha"/>
<feOffset dy="4"/>
<feGaussianBlur stdDeviation="4.45"/>
<feComposite in2="hardAlpha" operator="out"/>
<feColorMatrix type="matrix" values="0 0 0 0 0.293444 0 0 0 0 0.193056 0 0 0 0 0.579167 0 0 0 0.37 0"/>
<feBlend mode="normal" in2="BackgroundImageFix" result="effect1_dropShadow_60_38"/>
<feBlend mode="normal" in="SourceGraphic" in2="effect1_dropShadow_60_38" result="shape"/>
</filter>
<filter id="filter1_d_60_38" x="10.1148" y="74.0228" width="66.1234" height="35.8759" filterUnits="userSpaceOnUse" color-interpolation-filters="sRGB">
<feFlood flood-opacity="0" result="BackgroundImageFix"/>
<feColorMatrix in="SourceAlpha" type="matrix" values="0 0 0 0 0 0 0 0 0 0 0 0 0 0 0 0 0 0 127 0" result="hardAlpha"/>
<feOffset dy="4"/>
<feGaussianBlur stdDeviation="4.65"/>
<feComposite in2="hardAlpha" operator="out"/>
<feColorMatrix type="matrix" values="0 0 0 0 0.754167 0 0 0 0 0.43176 0 0 0 0 0.329948 0 0 0 0.25 0"/>
<feBlend mode="normal" in2="BackgroundImageFix" result="effect1_dropShadow_60_38"/>
<feBlend mode="normal" in="SourceGraphic" in2="effect1_dropShadow_60_38" result="shape"/>
</filter>
<linearGradient id="paint0_linear_60_38" x1="58.5" y1="0" x2="58.5" y2="117" gradientUnits="userSpaceOnUse">
<stop stop-color="#242424"/>
<stop offset="1" stop-color="#0D0D0D"/>
</linearGradient>
<linearGradient id="paint1_linear_60_38" x1="24.2314" y1="63.1411" x2="115.007" y2="92.374" gradientUnits="userSpaceOnUse">
<stop stop-color="#FF2983"/>
<stop offset="1" stop-color="#AB40FF"/>
</linearGradient>
<linearGradient id="paint2_linear_60_38" x1="24.2314" y1="63.1411" x2="115.007" y2="92.374" gradientUnits="userSpaceOnUse">
<stop stop-color="#FF2983"/>
<stop offset="1" stop-color="#AB40FF"/>
</linearGradient>
<linearGradient id="paint3_linear_60_38" x1="57.1857" y1="71.4384" x2="30.5115" y2="91.3161" gradientUnits="userSpaceOnUse">
<stop stop-color="#FFE049"/>
<stop offset="1" stop-color="#FF5050"/>
</linearGradient>
<linearGradient id="paint4_linear_60_38" x1="57.1857" y1="71.4384" x2="30.5115" y2="91.3161" gradientUnits="userSpaceOnUse">
<stop stop-color="#FFE049"/>
<stop offset="1" stop-color="#FF5050"/>
</linearGradient>
</defs>
</svg>
